PathFileType	4	(X/Y/Z)	/Users/itak/Documents/Research/Walk-IL/dataset/trc/00385_00012.trc
DataRate	CameraRate	NumFrames	NumMarkers	Units	OrigDataRate	OrigDataStartFrame	OrigNumFrames
100.000000	100.000000	4	55	mm	100.000000	150	600
Frame#	Time	RPSI			LPSI			L3			STRN			T10			C7			CLAV			RBAK			LBAK			LSHO			LUPA			LAEL			LAOL			LWTS			LWPS			LFRA			LIFD			LHPS			LHTS			RSHO			RUPA			RAEL			RAOL			RWTS			RWPS			RFRA			RIFD			RHTS			RHPS			RBHD			LFHD			RFHD			RHIP			RASI			LKNE			LTHI			LANK			LTIP			LTOE			LMT1			LMT5			LHEE			RKNE			RANK			RTIP			RTOE			RMT1			RMT5			RHEE			LASI			LBHD			LHIP			RTHI			*53			*54			
		X1	Y1	Z1	X2	Y2	Z2	X3	Y3	Z3	X4	Y4	Z4	X5	Y5	Z5	X6	Y6	Z6	X7	Y7	Z7	X8	Y8	Z8	X9	Y9	Z9	X10	Y10	Z10	X11	Y11	Z11	X12	Y12	Z12	X13	Y13	Z13	X14	Y14	Z14	X15	Y15	Z15	X16	Y16	Z16	X17	Y17	Z17	X18	Y18	Z18	X19	Y19	Z19	X20	Y20	Z20	X21	Y21	Z21	X22	Y22	Z22	X23	Y23	Z23	X24	Y24	Z24	X25	Y25	Z25	X26	Y26	Z26	X27	Y27	Z27	X28	Y28	Z28	X29	Y29	Z29	X30	Y30	Z30	X31	Y31	Z31	X32	Y32	Z32	X33	Y33	Z33	X34	Y34	Z34	X35	Y35	Z35	X36	Y36	Z36	X37	Y37	Z37	X38	Y38	Z38	X39	Y39	Z39	X40	Y40	Z40	X41	Y41	Z41	X42	Y42	Z42	X43	Y43	Z43	X44	Y44	Z44	X45	Y45	Z45	X46	Y46	Z46	X47	Y47	Z47	X48	Y48	Z48	X49	Y49	Z49	X50	Y50	Z50	X51	Y51	Z51	X52	Y52	Z52	X53	Y53	Z53	X54	Y54	Z54	X55	Y55	Z55	

151	1.5	1016.222778320312	981.1812133789062	10.3353385925293	1010.131774902344	973.018310546875	-121.8327255249023	1014.856689453125	1049.234741210938	-54.87295532226562	1248.634155273438	1205.421630859375	-51.70223236083984	1005.393920898438	1152.211791992188	-59.24666595458984	1038.763061523438	1402.135009765625	-71.49679565429688	1195.338500976562	1323.963989257812	-57.06253814697266	992.6105346679688	1256.867553710938	-4.347285270690918	1027.990600585938	1364.186889648438	-174.7214202880859	1118.4814453125	1376.979858398438	-221.8635101318359	1095.753540039062	1259.235473632812	-290.6476440429688	1117.097534179688	1060.617431640625	-309.1267700195312	1050.89453125	1041.893310546875	-257.0366821289062	1205.636352539062	853.6199340820312	-239.1339721679688	1168.516357421875	834.2919311523438	-310.4712219238281	1137.596801757812	956.5635986328125	-311.0966491699219	1210.299194335938	673.8648681640625	-234.0878143310547	1184.629272460938	750.73193359375	-297.1760864257812	1231.318237304688	757.5447998046875	-252.837890625	1089.764282226562	1382.4013671875	90.21691131591797	1073.425903320312	1318.65185546875	149.3956451416016	1074.222900390625	1058.634643554688	195.4831848144531	1053.1669921875	1045.1728515625	104.2575912475586	1201.668090820312	844.67041015625	168.3386077880859	1163.217407226562	834.7532348632812	230.998779296875	1100.330078125	993.330810546875	213.0212097167969	1208.571655273438	672.5631103515625	178.6724853515625	1225.229370117188	742.7520751953125	191.1537017822266	1169.198974609375	745.1455688476562	232.2222137451172	1076.044921875	1590.26123046875	14.61387825012207	1234.781372070312	1591.07958984375	-105.8297653198242	1210.258422851562	1595.1162109375	14.97786617279053	1101.72802734375	955.4871215820312	125.5714797973633	1227.927368164062	961.4066162109375	69.08470153808594	1120.3828125	463.2032165527344	-208.3101348876953	1120.190307617188	605.627197265625	-221.2790985107422	1020.51513671875	30.37764358520508	-159.4148559570312	1066.01708984375	233.3811798095703	-196.4691619873047	1233.98876953125	30.19790649414062	-91.59775543212891	1154.8974609375	33.21546173095703	-62.68061447143555	1149.157104492188	30.17667388916016	-167.6450042724609	982.6237182617188	28.35834121704102	-103.0250778198242	1120.418334960938	466.5374755859375	105.1660461425781	1069.365234375	45.81321716308594	74.14262390136719	1127.550537109375	341.6052856445312	90.82490539550781	1247.105834960938	27.16263771057129	7.111464500427246	1170.548095703125	32.49744033813477	-19.96271705627441	1153.298950195312	36.08193206787109	77.91854858398438	992.4662475585938	32.53205871582031	22.4409236907959	1211.87353515625	954.757080078125	-194.3660736083984	1091.1650390625	1582.979125976562	-145.0382080078125	1100.734741210938	955.7476806640625	-231.9976348876953	1163.843017578125	733.941162109375	133.3639221191406	nan	nan	nan	nan	nan	nan	
152	1.51	1016.121520996094	981.222412109375	10.39058876037598	1009.972045898438	973.0615844726562	-121.7981719970703	1014.80419921875	1049.3076171875	-54.79568099975586	1248.666015625	1205.436279296875	-51.66153717041016	1005.383056640625	1152.281860351562	-59.17947769165039	1038.843872070312	1402.170166015625	-71.41548919677734	1195.392211914062	1323.98046875	-57.02199935913086	992.6357421875	1256.920532226562	-4.285055637359619	1028.048828125	1364.222534179688	-174.6660461425781	1118.536010742188	1376.970581054688	-221.8077087402344	1095.81884765625	1259.258056640625	-290.6179504394531	1117.08740234375	1060.6337890625	-309.079833984375	1050.8662109375	1041.957397460938	-256.9259033203125	1205.600708007812	853.6707763671875	-239.0894317626953	1168.4755859375	834.3130493164062	-310.3659973144531	1137.56201171875	956.5631713867188	-311.021484375	1210.29541015625	673.9873046875	-233.9824523925781	1184.568725585938	750.7435913085938	-297.086669921875	1231.271850585938	757.5022583007812	-252.7112884521484	1089.839599609375	1382.4873046875	90.28553009033203	1073.58056640625	1318.66259765625	149.5063629150391	1074.28271484375	1058.675415039062	195.5777740478516	1053.208129882812	1045.212890625	104.3264236450195	1201.731079101562	844.7075805664062	168.4141845703125	1163.26416015625	834.784423828125	231.0679321289062	1100.390258789062	993.3760375976562	213.1222991943359	1208.755615234375	672.6431884765625	178.8251647949219	1225.336059570312	742.8161010742188	191.2502593994141	1169.277587890625	745.1924438476562	232.3181610107422	1076.013427734375	1590.254150390625	14.63605880737305	1234.755493164062	1591.134643554688	-105.7698593139648	1210.188720703125	1595.183227539062	15.052903175354	1101.25341796875	955.498291015625	125.5532989501953	1227.924682617188	961.3988647460938	69.10742950439453	1120.387939453125	463.207763671875	-208.2809753417969	1120.198364257812	605.6277465820312	-221.2440185546875	1020.520141601562	30.38847923278809	-159.4120635986328	1066.026245117188	233.3910064697266	-196.4568939208984	1233.95458984375	30.15882301330566	-91.61016845703125	1154.897705078125	33.21525573730469	-62.68000030517578	1149.1611328125	30.17711067199707	-167.6432189941406	982.6248168945312	28.35775375366211	-103.0251388549805	1120.419799804688	466.5364685058594	105.2063522338867	1069.377807617188	45.81632232666016	74.15784454345703	1127.541137695312	341.60498046875	90.84947967529297	1247.102661132812	27.15961647033691	7.106295108795166	1170.547607421875	32.49567031860352	-19.96364212036133	1153.283081054688	36.05232620239258	77.90167236328125	992.441650390625	32.532958984375	22.4384708404541	1211.949829101562	954.9102172851562	-194.4659729003906	1091.148193359375	1582.944458007812	-145.0096893310547	1100.859252929688	955.8870239257812	-232.0760192871094	1163.722045898438	733.927734375	133.1449432373047	nan	nan	nan	nan	nan	nan	
153	1.52	1016.008666992188	981.2681884765625	10.44281673431396	1009.761047363281	973.1167602539062	-121.7758636474609	1014.77880859375	1049.371459960938	-54.71635818481445	1248.701782226562	1205.453857421875	-51.61606216430664	1005.385864257812	1152.342895507812	-59.10651016235352	1038.919189453125	1402.200561523438	-71.33883666992188	1195.439331054688	1323.996337890625	-56.98244857788086	992.6580200195312	1256.968872070312	-4.22636890411377	1028.10498046875	1364.254638671875	-174.6151733398438	1118.585083007812	1376.956909179688	-221.7548828125	1095.888916015625	1259.27294921875	-290.5895385742188	1117.088256835938	1060.64501953125	-309.0410766601562	1050.853759765625	1042.005493164062	-256.8310852050781	1205.5712890625	853.7166748046875	-239.0412445068359	1168.432983398438	834.3218994140625	-310.2498779296875	1137.536376953125	956.5603637695312	-310.9408874511719	1210.386596679688	674.2470092773438	-233.9508361816406	1184.517944335938	750.7489624023438	-296.979736328125	1231.228515625	757.45361328125	-252.5810546875	1089.918090820312	1382.59375	90.36071014404297	1073.717163085938	1318.675903320312	149.6074981689453	1074.334350585938	1058.72314453125	195.6757354736328	1053.245727539062	1045.2529296875	104.3976364135742	1201.786376953125	844.7506103515625	168.4933624267578	1163.3125	834.8236083984375	231.1393432617188	1100.44677734375	993.4286499023438	213.22607421875	1208.951293945312	672.7301025390625	178.9938201904297	1225.43603515625	742.8839111328125	191.3489379882812	1169.358276367188	745.244384765625	232.4181671142578	1075.990112304688	1590.24462890625	14.66098976135254	1234.740478515625	1591.171508789062	-105.6911773681641	1210.124755859375	1595.233276367188	15.1353006362915	1100.6181640625	955.515869140625	125.495849609375	1227.921508789062	961.392822265625	69.13175964355469	1120.39453125	463.213134765625	-208.2500152587891	1120.208374023438	605.627197265625	-221.2096405029297	1020.524780273438	30.39929008483887	-159.4103088378906	1066.034423828125	233.3992919921875	-196.4480743408203	1233.920166015625	30.12775611877441	-91.63181304931641	1154.89794921875	33.21490478515625	-62.67900466918945	1149.165649414062	30.17781257629395	-167.6410980224609	982.62744140625	28.35604667663574	-103.0257339477539	1120.41796875	466.53515625	105.244270324707	1069.382568359375	45.81797027587891	74.16668701171875	1127.532104492188	341.6042175292969	90.87569427490234	1247.1015625	27.16205787658691	7.095748424530029	1170.548828125	32.49264144897461	-19.96370315551758	1153.263549804688	36.01612091064453	77.87995147705078	992.4223022460938	32.5324821472168	22.43679046630859	1212.016845703125	955.0371704101562	-194.5469665527344	1091.149780273438	1582.9248046875	-144.9744720458984	1100.979248046875	955.9990844726562	-232.1336059570312	1163.4404296875	733.9201049804688	132.8860626220703	nan	nan	nan	nan	nan	nan	
154	1.53	1015.880676269531	981.3187866210938	10.49058628082275	1009.520202636719	973.1791381835938	-121.7615051269531	1014.7890625	1049.425048828125	-54.63504028320312	1248.74072265625	1205.473510742188	-51.56481552124023	1005.403015136719	1152.394287109375	-59.0278205871582	1038.986083984375	1402.225341796875	-71.26758575439453	1195.47998046875	1324.011840820312	-56.94256210327148	992.676513671875	1257.012939453125	-4.16716480255127	1028.15869140625	1364.282958984375	-174.5680999755859	1118.628173828125	1376.9404296875	-221.7052307128906	1095.96044921875	1259.2783203125	-290.5589904785156	1117.097045898438	1060.650024414062	-309.0058898925781	1050.854370117188	1042.03564453125	-256.74951171875	1205.543212890625	853.7471923828125	-238.9813537597656	1168.388427734375	834.3159790039062	-310.1255493164062	1137.5224609375	956.5564575195312	-310.8541259765625	1210.532348632812	674.5853881835938	-233.9560546875	1184.476196289062	750.7450561523438	-296.8561096191406	1231.191162109375	757.4064331054688	-252.4572601318359	1089.996459960938	1382.712036132812	90.43828582763672	1073.827880859375	1318.693725585938	149.6958465576172	1074.379028320312	1058.776000976562	195.7763061523438	1053.2900390625	1045.294677734375	104.4708709716797	1201.83447265625	844.7999877929688	168.5760040283203	1163.365478515625	834.8720092773438	231.2146301269531	1100.500122070312	993.4868774414062	213.3313903808594	1209.133422851562	672.8152465820312	179.1623840332031	1225.5263671875	742.95263671875	191.4480133056641	1169.43505859375	745.298583984375	232.5181884765625	1075.97314453125	1590.234130859375	14.68733596801758	1234.736694335938	1591.193725585938	-105.5993194580078	1210.066650390625	1595.26611328125	15.22557735443115	1099.838012695312	955.5422973632812	125.3998641967773	1227.916625976562	961.38818359375	69.15953063964844	1120.401611328125	463.2204284667969	-208.2172546386719	1120.21875	605.6270141601562	-221.1739807128906	1020.530212402344	30.41007614135742	-159.4103698730469	1066.041381835938	233.4073181152344	-196.4414825439453	1233.890014648438	30.10627746582031	-91.65869140625	1154.8984375	33.21437835693359	-62.67757415771484	1149.169921875	30.1787281036377	-167.6389923095703	982.6310424804688	28.3535327911377	-103.0267791748047	1120.413696289062	466.5342712402344	105.2814483642578	1069.379272460938	45.81764221191406	74.16899871826172	1127.522338867188	341.6027221679688	90.90355682373047	1247.102172851562	27.1672191619873	7.08433723449707	1170.551147460938	32.48982238769531	-19.96275901794434	1153.245239257812	35.98127746582031	77.85813140869141	992.4093627929688	32.53114700317383	22.43522262573242	1212.075561523438	955.1407470703125	-194.6114654541016	1091.16552734375	1582.918090820312	-144.9329833984375	1101.094848632812	956.0867919921875	-232.1727600097656	1163.015014648438	733.9209594726562	132.5885009765625	nan	nan	nan	nan	nan	nan	
